<svg width="22" height="22" viewBox="0 0 22 22" fill="none" xmlns="http://www.w3.org/2000/svg">
<path d="M5 4.5L4.46994 4.5L4.50085 5.02916L5 5C4.50085 5.02916 4.50085 5.02921 4.50086 5.0293L4.50088 5.02972L4.50098 5.03138L4.50137 5.03798L4.50289 5.06405L4.50885 5.16573L4.53155 5.55216C4.55115 5.88536 4.57928 6.36204 4.61338 6.93599C4.68157 8.08385 4.77364 9.6209 4.86912 11.1774C4.96459 12.7338 5.06352 14.3103 5.14543 15.5369C5.18637 16.1501 5.22314 16.677 5.25315 17.0706C5.28187 17.4473 5.30669 17.7373 5.32574 17.8456C5.39376 18.2325 5.56307 18.6241 5.81346 18.9293C6.06134 19.2315 6.43558 19.5 6.9091 19.5L15.0909 19.5C15.5682 19.5 15.9361 19.2274 16.1791 18.9259C16.4237 18.6223 16.5886 18.2375 16.6702 17.8663C16.6955 17.751 16.7192 17.5288 16.7429 17.264C16.7681 16.9836 16.7966 16.615 16.8276 16.179C16.8896 15.3064 16.9621 14.1553 17.0389 12.8833C17.1208 11.5246 17.2081 10.018 17.2923 8.56375C17.3653 7.30314 17.4361 6.08178 17.4991 5.02993L17.5309 4.50002L17 4.50002L5 4.5Z" stroke="white"/>
<path d="M7.5 4.5V2.5C7.5 1.94772 7.94772 1.5 8.5 1.5H13.5C14.0523 1.5 14.5 1.94772 14.5 2.5V4.5" stroke="white"/>
<rect x="1.25" y="4.25" width="19.5" height="0.5" rx="0.25" stroke="white" stroke-width="0.5"/>
<rect width="1" height="10" rx="0.5" transform="matrix(-1 0 0 1 14 7)" fill="white"/>
<rect x="8" y="7" width="1" height="10" rx="0.5" fill="white"/>
</svg>
